# xmcd CD database file
#
# Track frame offsets:
#	150
#	14361
#	40446
#	57604
#	74422
#	85451
#	101880
#	119787
#	133754
#	161845
#	178369
#	195579
#	210784
#	231030
#	250720
#	272813
#	292660
#	304574
#	318400
#
# Disc length: 4570 seconds
#
# Revision: 0
# Processed by: cddbd v1.5.2PL0 Copyright (c) Steve Scherf et al.
# Submitted via: CDex 1.70beta2
#
DISCID=1e11d813
DTITLE=Los Norteños - Nuestra Música
DYEAR=2007
DGENRE=Salsa
TTITLE0=Guantanamera
TTITLE1=Chan Chan
TTITLE2=Si fueras mia
TTITLE3=El bodeguero
TTITLE4=Habana
TTITLE5=Maria Cristina
TTITLE6=Hasta siempre
TTITLE7=Mamagüé
TTITLE8=Un montón de estrellas
TTITLE9=Bésame mucho
TTITLE10=Yereyé
TTITLE11=Y la amo
TTITLE12=Son de la loma
TTITLE13=I Just Call
TTITLE14=El cuarto deTula
TTITLE15=A puro dolor
TTITLE16=María Isabel
TTITLE17=El pasimo de la Bibijagua
TTITLE18=Yolanda
EXTD=YEAR: 2007
EXTT0=
EXTT1=
EXTT2=
EXTT3=
EXTT4=
EXTT5=
EXTT6=
EXTT7=
EXTT8=
EXTT9=
EXTT10=
EXTT11=
EXTT12=
EXTT13=
EXTT14=
EXTT15=
EXTT16=
EXTT17=
EXTT18=
PLAYORDER=
